<svg width="23" height="26" viewBox="0 0 23 26" fill="none" xmlns="http://www.w3.org/2000/svg">
<g clip-path="url(#clip0_802_323)">
<path d="M13.2011 22.4344L12.0738 23.5347C11.5965 24.0005 10.8246 24.0005 10.3523 23.5347L0.480444 13.905C0.00310063 13.4392 0.00310063 12.6859 0.480444 12.2249L10.3523 2.59037C10.8297 2.1245 11.6015 2.1245 12.0738 2.59037L13.2011 3.69061C13.6836 4.16144 13.6734 4.92963 13.1808 5.39054L7.06169 11.0801H21.6562C22.3316 11.0801 22.875 11.6104 22.875 12.2695V13.8555C22.875 14.5146 22.3316 15.0449 21.6562 15.0449H7.06169L13.1808 20.7345C13.6785 21.1954 13.6886 21.9636 13.2011 22.4344Z" fill="#292929" fill-opacity="0.8"/>
</g>
<defs>
<clipPath id="clip0_802_323">
<rect width="22.75" height="25.375" fill="white" transform="translate(0.125 0.375)"/>
</clipPath>
</defs>
</svg>
